<?xml version="1.0" standalone="no"?>
<!DOCTYPE svg PUBLIC "-//W3C//DTD SVG 20010904//EN"
 "http://www.w3.org/TR/2001/REC-SVG-20010904/DTD/svg10.dtd">
<svg version="1.0" xmlns="http://www.w3.org/2000/svg"
 width="1920.000000pt" height="1080.000000pt" viewBox="0 0 1920.000000 1080.000000"
 preserveAspectRatio="xMidYMid meet">

<g transform="translate(0.000000,1080.000000) scale(0.100000,-0.100000)"
fill="#000000" stroke="none">
<path d="M9562 5578 c-15 -15 -16 -60 0 -76 15 -15 -6 -90 -28 -99 -24 -9 -72
43 -67 72 4 18 -1 27 -25 39 -28 15 -31 14 -55 -8 l-26 -24 20 -38 c25 -49 27
-190 3 -235 -14 -28 -14 -33 0 -55 23 -34 50 -38 237 -39 150 0 169 2 188 19
22 20 29 80 11 91 -12 7 -14 202 -2 209 14 8 1 70 -17 83 -22 17 -24 16 -50
-8 -16 -15 -21 -28 -17 -44 5 -18 0 -28 -21 -42 -16 -11 -35 -18 -43 -16 -19
4 -42 74 -29 88 13 13 11 69 -3 83 -7 7 -24 12 -38 12 -14 0 -31 -5 -38 -12z"/>
</g>
</svg>
