<?xml version="1.0" standalone="no"?>
<!DOCTYPE svg PUBLIC "-//W3C//DTD SVG 20010904//EN"
 "http://www.w3.org/TR/2001/REC-SVG-20010904/DTD/svg10.dtd">
<svg version="1.0" xmlns="http://www.w3.org/2000/svg"
 width="1920.000000pt" height="1080.000000pt" viewBox="0 0 1920.000000 1080.000000"
 preserveAspectRatio="xMidYMid meet">

<g transform="translate(0.000000,1080.000000) scale(0.100000,-0.100000)"
fill="#000000" stroke="none">
<path d="M9567 5602 c-20 -22 -22 -63 -5 -80 15 -15 -9 -92 -29 -92 -31 0 -62
31 -61 62 2 54 -54 76 -92 38 -24 -24 -25 -43 -5 -60 12 -10 15 -37 15 -124 0
-67 -4 -116 -11 -123 -23 -23 -5 -57 41 -80 40 -21 58 -23 190 -23 120 0 152
4 187 19 49 23 60 49 39 90 -22 42 -22 213 -1 231 34 28 2 90 -47 90 -26 0
-50 -30 -45 -57 5 -26 -32 -63 -63 -63 -26 0 -45 78 -25 101 21 22 19 36 -10
64 -29 30 -56 32 -78 7z m57 -8 c20 -8 21 -48 1 -64 -19 -15 -52 -4 -60 21
-11 35 20 58 59 43z m-179 -94 c0 -19 -6 -26 -24 -28 -30 -5 -45 10 -36 38 10
32 60 24 60 -10z m370 0 c0 -18 -6 -26 -23 -28 -24 -4 -38 18 -28 44 3 9 15
14 28 12 17 -2 23 -10 23 -28z m-179 -45 c19 -52 39 -57 85 -24 20 14 38 19
54 15 21 -5 25 -12 25 -44 l0 -37 -195 0 -195 0 0 38 c0 49 21 57 71 29 54
-31 67 -28 89 23 11 25 26 45 34 45 8 0 22 -20 32 -45z m147 -120 c9 -4 17
-10 17 -14 0 -3 -88 -6 -195 -6 -126 0 -194 4 -192 10 2 6 23 13 48 17 53 8
297 2 322 -7z m0 -51 c30 -11 9 -21 -74 -34 -112 -18 -305 -2 -296 24 2 6 23
14 48 18 52 8 297 2 322 -8z m-178 -59 c44 0 106 3 138 8 72 9 76 -7 5 -23
-100 -22 -175 -24 -264 -5 -99 21 -114 40 -21 28 34 -4 98 -8 142 -8z m-78
-46 c78 -12 155 -7 267 18 42 9 30 -17 -20 -42 -33 -17 -59 -20 -169 -20 -113
0 -136 3 -177 22 -56 26 -65 48 -15 39 17 -3 69 -11 114 -17z"/>
</g>
</svg>
